<svg id="Calque_1" data-name="Calque 1" xmlns="http://www.w3.org/2000/svg" viewBox="0 0 330.91 560.16"><defs><style>.cls-1{fill:#353535;}</style></defs><path class="cls-1" d="M330.4,152.07A165.92,165.92,0,0,0,176.4.42,163.78,163.78,0,0,0,52.31,44.59,166.12,166.12,0,0,0,0,165.49a162.28,162.28,0,0,0,15,68.6L148.08,548.84a19.09,19.09,0,0,0,34.87,0L315.76,234.48a164.14,164.14,0,0,0,15.15-69,116.06,116.06,0,0,0-.51-13.43ZM165.45,89.13a76.38,76.38,0,1,1-54,22.37A76.36,76.36,0,0,1,165.45,89.13Z"/></svg>