<?xml version="1.0" encoding="utf-8"?>
<!-- Generator: Adobe Illustrator 25.4.6, SVG Export Plug-In . SVG Version: 6.00 Build 0)  -->
<svg version="1.1" id="gradient-empty" xmlns="http://www.w3.org/2000/svg" xmlns:xlink="http://www.w3.org/1999/xlink" x="0px"
	 y="0px" viewBox="0 0 492.5 425.5" style="enable-background:new 0 0 492.5 425.5;" xml:space="preserve">
<style type="text/css">
	.st0{fill:url(#SVGID_1_);stroke:url(#SVGID_00000172408878060520581210000003103233968666925988_);stroke-miterlimit:10;}
</style>
<linearGradient id="SVGID_1_" gradientUnits="userSpaceOnUse" x1="247.026" y1="470.3594" x2="245.7967" y2="-78.3957">
	<stop  offset="2.283105e-03" style="stop-color:#FF839A"/>
	<stop  offset="0.9886" style="stop-color:#BE14CB"/>
</linearGradient>
<linearGradient id="SVGID_00000074410159194954513560000011872969295664124583_" gradientUnits="userSpaceOnUse" x1="-0.5025" y1="212.7348" x2="493.0325" y2="212.7348">
	<stop  offset="0" style="stop-color:#812666"/>
	<stop  offset="0.637" style="stop-color:#D62EA5"/>
	<stop  offset="1" style="stop-color:#000000"/>
</linearGradient>
<path style="fill:url(#SVGID_1_);stroke:url(#SVGID_00000074410159194954513560000011872969295664124583_);stroke-miterlimit:10;" d="
	M129.9,0C95.4,0,62.3,13.8,38,38.3c-50.7,51-50.6,133.5,0,184.4l196.2,197.8c6.5,6.6,17.2,6.6,23.7,0.1c0,0,0,0,0.1-0.1
	c65.5-65.8,131-131.6,196.5-197.4c50.7-51,50.7-133.7,0-184.6c-50.6-50.8-132.7-51-183.5-0.4c-0.1,0.1-0.3,0.3-0.4,0.4L246.4,63
	l-24.5-24.7C197.6,13.8,164.4,0,129.9,0L129.9,0z"/>
</svg>
