<svg id="Calque_1" data-name="Calque 1" xmlns="http://www.w3.org/2000/svg" viewBox="0 0 492.53 425.47"><path d="M129.88,0A129.3,129.3,0,0,0,38,38.32c-50.7,51-50.64,133.46,0,184.45L234.18,420.52a16.78,16.78,0,0,0,23.8,0q98.24-98.73,196.52-197.4c50.71-51,50.71-133.67,0-184.62a129.77,129.77,0,0,0-183.93,0L246.42,63l-24.5-24.67A129.64,129.64,0,0,0,129.87,0Zm0,33.25A96.13,96.13,0,0,1,198.13,62l36.4,36.57a16.8,16.8,0,0,0,23.8,0l36.05-36.39c38-38.18,98.34-38.18,136.32,0a96.85,96.85,0,0,1,0,137.2Q338.39,292.09,246.08,385L61.81,199.15a96.86,96.86,0,0,1,0-137.2,95.76,95.76,0,0,1,68.07-28.69Z"/></svg>